<?xml version="1.0" standalone="no"?>
<!DOCTYPE svg PUBLIC "-//W3C//DTD SVG 20010904//EN"
 "http://www.w3.org/TR/2001/REC-SVG-20010904/DTD/svg10.dtd">
<svg version="1.0" xmlns="http://www.w3.org/2000/svg"
 width="800.000000pt" height="800.000000pt" viewBox="0 0 800.000000 800.000000"
 preserveAspectRatio="xMidYMid meet">

<g transform="translate(0.000000,800.000000) scale(0.100000,-0.100000)"
fill="#000000" stroke="none">
<path d="M1851 7949 c-102 -20 -196 -91 -242 -184 -22 -46 -24 -64 -27 -212
l-3 -163 -164 0 c-173 0 -245 -10 -309 -42 -60 -31 -131 -110 -158 -175 l-23
-58 0 -3395 0 -3395 23 -57 c31 -75 101 -150 177 -185 l60 -28 2485 0 2485 0
60 28 c77 36 147 110 176 185 18 46 23 84 27 204 l4 146 192 4 c182 3 194 4
247 29 79 37 133 90 171 167 l33 67 3 3365 c2 2474 0 3381 -8 3425 -28 147
-128 247 -275 274 -72 13 -4866 14 -4934 0z m4949 -189 c21 -11 49 -34 62 -52
l23 -33 0 -3387 0 -3387 -21 -27 c-49 -66 -58 -69 -260 -72 l-184 -3 0 2475
c0 1793 -3 2490 -11 2528 -6 29 -20 71 -31 93 -13 26 -266 286 -716 737 -622
622 -703 700 -757 725 l-60 28 -1547 3 -1548 2 0 128 c0 157 17 203 90 240
l44 22 2439 0 c2409 0 2438 0 2477 -20z m-2018 -1157 l3 -608 26 -56 c33 -69
88 -124 159 -158 l55 -26 608 -3 607 -3 -2 -2708 -3 -2708 -29 -37 c-54 -72
159 -66 -2536 -66 -2695 0 -2482 -6 -2536 66 l-29 37 0 3387 0 3387 27 35 c56
73 -108 68 1870 68 l1777 0 3 -607z m806 -671 c-487 -2 -524 -1 -556 16 -19
10 -43 33 -54 52 -17 32 -18 69 -18 560 l0 525 575 -575 575 -575 -522 -3z"/>
<path d="M2195 6366 c-127 -31 -232 -116 -288 -233 l-32 -68 0 -210 c0 -237 4
-255 87 -363 23 -29 39 -54 37 -55 -131 -82 -202 -157 -258 -271 -52 -109 -65
-168 -66 -314 0 -123 0 -124 28 -148 39 -33 81 -31 118 5 28 29 29 32 29 133
0 61 6 128 15 163 32 124 120 227 244 288 63 30 72 32 181 32 108 0 119 -2
180 -31 122 -58 213 -165 245 -289 9 -35 15 -102 15 -163 0 -101 1 -104 29
-133 37 -36 79 -38 118 -5 28 24 28 25 28 148 -1 145 -13 205 -66 314 -56 114
-127 189 -258 271 -2 1 14 26 37 55 83 108 87 126 87 363 l0 210 -32 68 c-86
181 -288 279 -478 233z m201 -190 c62 -29 110 -84 129 -150 20 -65 20 -276 1
-338 -18 -61 -59 -113 -115 -146 -39 -23 -58 -27 -121 -27 -63 0 -82 4 -121
27 -56 33 -97 85 -115 146 -19 62 -19 273 1 338 31 103 126 174 235 174 37 0
72 -8 106 -24z"/>
<path d="M3454 4850 c-58 -23 -70 -95 -25 -141 l29 -29 1067 0 c1160 0 1107
-3 1133 56 10 20 10 35 2 60 -23 68 43 64 -1127 63 -582 0 -1068 -4 -1079 -9z"/>
<path d="M1704 3926 c-37 -31 -38 -84 -4 -121 22 -24 29 -25 137 -25 108 0
115 1 138 25 17 16 25 35 25 60 0 25 -8 44 -25 60 -23 24 -31 25 -134 25 -101
0 -112 -2 -137 -24z"/>
<path d="M2435 3925 c-17 -16 -25 -35 -25 -60 0 -25 8 -44 25 -60 l24 -25
1579 0 1579 0 23 25 c34 37 33 90 -4 121 l-27 24 -1575 0 -1575 0 -24 -25z"/>
<path d="M1717 3039 c-27 -16 -49 -73 -38 -101 20 -54 45 -63 161 -63 101 0
110 2 134 24 43 40 35 111 -15 136 -33 18 -214 20 -242 4z"/>
<path d="M2441 3024 c-49 -41 -41 -112 16 -142 16 -9 219 -12 763 -12 l742 0
29 29 c36 37 38 79 5 118 l-24 28 -750 3 -750 2 -31 -26z"/>
<path d="M4504 3040 c-58 -23 -70 -95 -25 -141 l29 -29 541 0 c319 0 550 4
565 10 39 14 60 63 46 106 -22 65 -10 64 -602 63 -293 0 -543 -4 -554 -9z"/>
<path d="M1719 2135 c-35 -19 -51 -65 -37 -105 16 -46 53 -60 162 -60 87 0 97
2 125 26 41 34 43 89 5 125 -23 22 -35 24 -127 27 -76 1 -109 -2 -128 -13z"/>
<path d="M2435 2115 c-17 -16 -25 -35 -25 -60 0 -25 8 -44 25 -60 l24 -25
1579 0 1579 0 23 25 c34 37 33 90 -4 121 l-27 24 -1575 0 -1575 0 -24 -25z"/>
<path d="M4504 1230 c-58 -23 -70 -95 -25 -141 l29 -29 541 0 c319 0 550 4
565 10 39 14 60 63 46 106 -22 65 -10 64 -602 63 -293 0 -543 -4 -554 -9z"/>
</g>
</svg>
